<?xml version="1.0" standalone="no"?><!DOCTYPE svg PUBLIC "-//W3C//DTD SVG 1.1//EN" "http://www.w3.org/Graphics/SVG/1.1/DTD/svg11.dtd"><svg t="1761635762288" class="icon" viewBox="0 0 1024 1024" version="1.1" xmlns="http://www.w3.org/2000/svg" p-id="36491" xmlns:xlink="http://www.w3.org/1999/xlink" width="200" height="200"><path d="M678.4 627.2c6.4 12.8 12.8 19.2 19.2 32 25.6 51.2 57.6 102.4 83.2 153.6 6.4 19.2 19.2 32 25.6 51.2 12.8 25.6 12.8 64-25.6 89.6-25.6 12.8-51.2 32-76.8 44.8-32 12.8-64 6.4-83.2-25.6-25.6-38.4-44.8-83.2-70.4-121.6-19.2-38.4-38.4-70.4-57.6-108.8 0 0 0-6.4-6.4-6.4-12.8 12.8-25.6 25.6-32 38.4l-57.6 57.6c-19.2 19.2-38.4 25.6-64 12.8-25.6-6.4-38.4-25.6-38.4-51.2-6.4-32-6.4-64-12.8-96 0-25.6 0-57.6-6.4-83.2-6.4-32-6.4-64-12.8-96s-6.4-64-12.8-89.6c-6.4-32-6.4-64-12.8-96s-6.4-64-12.8-96-6.4-57.6-12.8-89.6c0-19.2-6.4-32-6.4-51.2 0-25.6 12.8-51.2 32-57.6 19.2-12.8 44.8-6.4 64 6.4 38.4 32 76.8 64 108.8 96 38.4 32 70.4 64 108.8 89.6 44.8 38.4 83.2 70.4 128 108.8 32 32 70.4 57.6 102.4 89.6 25.6 19.2 51.2 44.8 76.8 64 25.6 19.2 25.6 51.2 12.8 76.8-12.8 19.2-25.6 25.6-44.8 32-38.4 6.4-76.8 19.2-115.2 25.6z m102.4-89.6c-172.8-147.2-339.2-288-512-435.2l96 672c6.4 0 12.8-6.4 12.8-6.4 25.6-25.6 44.8-51.2 70.4-76.8 12.8-12.8 25.6-19.2 44.8-19.2 25.6 0 44.8 12.8 57.6 32 38.4 70.4 76.8 140.8 121.6 211.2 6.4 6.4 6.4 12.8 12.8 19.2 25.6-12.8 44.8-25.6 70.4-38.4v-6.4c-25.6-38.4-44.8-83.2-70.4-121.6-19.2-38.4-38.4-70.4-57.6-108.8-19.2-38.4 0-83.2 38.4-89.6 25.6-6.4 51.2-12.8 70.4-12.8 12.8-12.8 25.6-12.8 44.8-19.2z" fill="#343942" p-id="36492"></path><path d="M780.8 537.6c-19.2 6.4-32 6.4-51.2 12.8-25.6 6.4-51.2 12.8-70.4 12.8-44.8 12.8-64 57.6-38.4 96 19.2 38.4 38.4 70.4 57.6 108.8 25.6 38.4 44.8 83.2 70.4 121.6v6.4c-25.6 12.8-44.8 25.6-70.4 38.4-6.4-6.4-6.4-12.8-12.8-19.2-38.4-70.4-76.8-140.8-121.6-211.2-12.8-19.2-32-32-57.6-32-19.2 0-32 6.4-44.8 19.2-25.6 25.6-44.8 51.2-70.4 76.8l-12.8 12.8L262.4 108.8c179.2 140.8 345.6 288 518.4 428.8z" fill="#FFFFFF" p-id="36493"></path></svg>