<?xml version="1.0" standalone="no"?><!DOCTYPE svg PUBLIC "-//W3C//DTD SVG 1.1//EN" "http://www.w3.org/Graphics/SVG/1.1/DTD/svg11.dtd"><svg t="1761634180792" class="icon" viewBox="0 0 1396 1024" version="1.1" xmlns="http://www.w3.org/2000/svg" p-id="13666" xmlns:xlink="http://www.w3.org/1999/xlink" width="272.65625" height="200"><path d="M1320.773818 385.675636H1163.636364v-168.494545a47.010909 47.010909 0 0 0-46.545455-47.476364H658.897455L488.261818 3.258182A11.729455 11.729455 0 0 0 480.349091 0H110.592c-25.786182 0-46.545455 21.224727-46.545455 47.476364v878.219636c0 26.251636 20.759273 47.476364 46.545455 47.476364h1015.249455a46.638545 46.638545 0 0 0 43.194181-29.696l194.932364-492.450909a49.524364 49.524364 0 0 0 3.351273-17.873455 47.010909 47.010909 0 0 0-46.545455-47.476364z m-261.864727 0H317.067636a46.638545 46.638545 0 0 0-43.194181 29.789091l-105.192728 265.774546v-574.370909h274.245818L616.913455 276.48h441.995636v109.102545z" fill="#FFC82A" p-id="13667"></path></svg>