<?xml version="1.0" standalone="no"?><!DOCTYPE svg PUBLIC "-//W3C//DTD SVG 1.1//EN" "http://www.w3.org/Graphics/SVG/1.1/DTD/svg11.dtd"><svg t="1761632701741" class="icon" viewBox="0 0 1030 1024" version="1.1" xmlns="http://www.w3.org/2000/svg" p-id="1944" xmlns:xlink="http://www.w3.org/1999/xlink" width="201.171875" height="200"><path d="M152.069425 498.150481a70.222469 70.222469 0 1 0 70.222469-70.222469 70.222469 70.222469 0 0 0-70.222469 70.222469z m0 0" fill="#FF5247" p-id="1945"></path><path d="M505.295313 1023.471614h-1.056772c-347.413645 0-504.080026-300.017441-504.080025-513.168261A508.888336 508.888336 0 0 1 514.806257 0.19973a502.8119 502.8119 0 0 1 514.964772 458.850203 314.91792 314.91792 0 0 1-202.160396 286.754958 579.69203 579.69203 0 0 1-209.293604 19.920144l-10.567715-0.317031a46.339432 46.339432 0 0 0-13.156806 35.084815 29.431087 29.431087 0 0 0 0.792579 8.454172 36.987004 36.987004 0 0 0 3.910055 4.121409 117.090287 117.090287 0 0 1 33.182626 93.154412 110.961012 110.961012 0 0 1-32.178693 81.265731 144.143638 144.143638 0 0 1-95.109439 35.983071z m9.510944-936.458102c-323.477769 0-427.992475 285.328316-427.992475 423.34268 0 139.071135 102.189808 426.354479 418.111661 426.354479 18.916211 0 40.949897-5.283858 40.949897-30.593537 0-23.513167-3.32883-27.053351-9.352428-33.39398a94.105506 94.105506 0 0 1-28.58567-72.336012 113.391586 113.391586 0 0 1 99.495041-122.004275c2.800445 0 7.767271 0 14.372092 0.422709a547.301982 547.301982 0 0 0 174.684336-14.1079 230.21768 230.21768 0 0 0 146.31002-205.647743 414.941346 414.941346 0 0 0-427.992474-372.036421z m0 0" fill="#666666" p-id="1946"></path><path d="M304.244527 261.116624a70.222469 70.222469 0 1 0 70.222469-70.222469 70.222469 70.222469 0 0 0-70.222469 70.222469z m0 0" fill="#1592E6" p-id="1947"></path><path d="M581.330025 229.994702a70.222469 70.222469 0 1 0 70.222469-70.222469 70.222469 70.222469 0 0 0-70.222469 70.222469z m0 0" fill="#42FF81" p-id="1948"></path><path d="M756.912617 432.049421a70.222469 70.222469 0 1 0 70.222469-70.222469 70.222469 70.222469 0 0 0-70.222469 70.222469z m0 0" fill="#F6BF24" p-id="1949"></path></svg>