<?xml version="1.0" standalone="no"?><!DOCTYPE svg PUBLIC "-//W3C//DTD SVG 1.1//EN" "http://www.w3.org/Graphics/SVG/1.1/DTD/svg11.dtd"><svg t="1761634777593" class="icon" viewBox="0 0 1024 1024" version="1.1" xmlns="http://www.w3.org/2000/svg" p-id="20182" xmlns:xlink="http://www.w3.org/1999/xlink" width="200" height="200"><path d="M904.108934 413.96215l-53.6939 0c-12.091386 0-22.786982-7.706519-26.601868-19.167548l-10.203386-30.622438c-3.391237-10.161431-0.793062-21.157879 6.757914-28.713972l35.927257-35.922141c10.587126-10.586103 16.425088-24.659633 16.425088-39.628556 0-14.969946-5.837962-29.042453-16.425088-39.628556l-52.572356-52.593845c-10.587126-10.571776-24.659633-16.418948-39.634696-16.418948s-29.05064 5.847172-39.634696 16.418948l-35.927257 35.935444c-7.41283 7.446599-18.669198 10.100032-28.680203 6.770194l-30.635741-10.210549c-11.476379-3.822049-19.174712-14.517645-19.174712-26.600845L610.035292 119.893624c0-30.908964-25.13854-56.053644-56.047504-56.053644l-83.97353 0c-30.909987 0-56.047504 25.14468-56.047504 56.053644l0 53.68776c0 12.084223-7.699356 22.778796-19.174712 26.600845l-30.635741 10.210549c-9.956769 3.329838-21.239743 0.676405-28.680203-6.770194l-35.928281-35.935444c-10.585079-10.571776-24.658609-16.418948-39.634696-16.418948s-29.049616 5.847172-39.634696 16.418948l-52.572356 52.593845c-10.586103 10.586103-16.426111 24.658609-16.426111 39.628556 0 14.968923 5.840008 29.042453 16.426111 39.628556l35.928281 35.922141c7.54893 7.556093 10.148128 18.552541 6.756891 28.713972l-10.190083 30.615275c-3.829212 11.468193-14.523785 19.174712-26.614148 19.174712l-53.694923 0c-30.908964 0-56.047504 25.143657-56.047504 56.047504l0 83.96739c0 30.908964 25.137517 56.047504 56.047504 56.047504l53.694923 0c12.090363 0 22.784936 7.713682 26.600845 19.174712l10.203386 30.621415c3.391237 10.148128 0.793062 21.144576-6.756891 28.707832l-35.928281 35.928281c-10.586103 10.586103-16.426111 24.659633-16.426111 39.634696 0 14.96176 5.840008 29.03529 16.426111 39.607066l52.572356 52.599985c10.586103 10.586103 24.659633 16.412808 39.634696 16.412808s29.049616-5.826705 39.634696-16.412808l35.928281-35.941584c7.440459-7.41283 18.723434-10.066263 28.680203-6.756891l30.635741 10.203386c11.475356 3.829212 19.174712 14.523785 19.174712 26.600845l0 53.694923c0 30.908964 25.136493 56.059783 56.047504 56.059783l83.97353 0c30.908964 0 56.047504-25.15082 56.047504-56.059783l0-53.694923c0-12.07706 7.698333-22.771633 19.174712-26.600845l30.635741-10.203386c10.011005-3.309372 21.267373-0.656963 28.680203 6.756891l35.927257 35.941584c10.585079 10.586103 24.659633 16.412808 39.634696 16.412808s29.048593-5.826705 39.634696-16.412808l52.572356-52.599985c10.587126-10.571776 16.425088-24.645306 16.425088-39.607066 0-14.976086-5.837962-29.049616-16.425088-39.634696l-35.927257-35.928281c-7.550976-7.563256-10.149151-18.559705-6.757914-28.707832l10.18906-30.608112c3.829212-11.474332 14.523785-19.188015 26.616194-19.188015l53.6939 0c30.908964 0 56.047504-25.137517 56.047504-56.047504l0-83.96739C960.156438 439.10683 935.017898 413.96215 904.108934 413.96215zM932.145477 553.977044c0 15.468296-12.58155 28.05087-28.036543 28.05087l-53.6939 0c-24.15412 0-45.530986 15.399735-53.190433 38.321794l-10.201339 30.635741c-6.743588 20.269649-1.560542 42.233893 13.538341 57.332776l35.927257 35.941584c5.294586 5.306866 8.220219 12.33698 8.220219 19.831674 0 7.481392-2.925632 14.523785-8.220219 19.817348l-52.572356 52.586682c-10.585079 10.586103-29.076222 10.586103-39.661302 0l-35.929304-35.914978c-14.83794-14.866592-37.404911-20.200064-57.345056-13.553691l-30.636764 10.216689c-22.920012 7.630794-38.321794 28.994358-38.321794 53.160757l0 53.694923c0 15.467273-12.58155 28.049846-28.036543 28.049846l-83.97353 0c-15.456017 0-28.037567-12.582573-28.037567-28.049846l0-53.694923c0-24.166399-15.399735-45.529963-38.320771-53.160757l-30.635741-10.216689c-5.730515-1.914606-11.69332-2.885723-17.724687-2.885723-14.962783 0-29.049616 5.840008-39.621393 16.439414l-35.928281 35.914978c-10.586103 10.586103-29.076222 10.586103-39.662325 0l-52.573379-52.586682c-5.29254-5.293563-8.219195-12.33698-8.219195-19.817348 0-7.494695 2.926656-14.524808 8.219195-19.831674l35.928281-35.941584c15.098883-15.098883 20.282952-37.064151 13.539364-57.332776l-10.215666-30.649044c-7.645121-22.908756-29.021987-38.308491-53.175083-38.308491l-53.694923 0c-15.454994 0-28.036543-12.582573-28.036543-28.05087l0-83.96739c0-15.461133 12.582573-28.043706 28.036543-28.043706l53.694923 0c24.153096 0 45.529963-15.393595 53.188386-38.314631l10.202363-30.642904c6.742565-20.268626 1.559519-42.240033-13.539364-57.346079l-35.928281-35.935444c-5.29254-5.299703-8.219195-12.328793-8.219195-19.816325s2.926656-14.524808 8.219195-19.824511l52.573379-52.587706c10.586103-10.585079 29.076222-10.585079 39.662325 0l35.928281 35.922141c14.853289 14.865569 37.391608 20.192901 57.346079 13.539364l30.635741-10.203386c22.921036-7.646144 38.320771-29.008684 38.320771-53.175083L441.974645 119.893624c0-15.468296 12.582573-28.043706 28.037567-28.043706l83.97353 0c15.456017 0 28.036543 12.57541 28.036543 28.043706l0 53.68776c0 24.166399 15.401782 45.528939 38.321794 53.175083l30.636764 10.203386c19.912515 6.646374 42.507116 1.319042 57.345056-13.539364l35.929304-35.922141c10.585079-10.585079 29.076222-10.585079 39.661302 0l52.572356 52.587706c5.294586 5.299703 8.220219 12.33698 8.220219 19.824511s-2.925632 14.517645-8.220219 19.816325l-35.927257 35.935444c-15.099906 15.106046-20.281929 37.077453-13.538341 57.346079l10.214642 30.642904c7.645121 22.921036 29.021987 38.314631 53.176107 38.314631l53.6939 0c15.456017 0 28.036543 12.582573 28.036543 28.043706L932.144454 553.977044zM489.734392 416.431388c-36.44812 8.082072-65.224514 36.852326-73.307609 73.307609-6.605442 29.774117 0.356111 60.23078 19.079544 83.563184 18.723434 23.333428 46.610574 36.70804 76.492138 36.722366l0.014326 0c7.385201 0 14.867616-0.820692 22.252817-2.461051 36.447097-8.083096 65.22349-36.852326 73.306586-73.307609 6.605442-29.78128-0.356111-60.245106-19.079544-83.57751C565.132616 421.573501 527.016507 408.142607 489.734392 416.431388zM580.218196 528.188704c-5.64865 25.473161-26.559912 46.37726-52.026934 52.033074-5.38873 1.190105-10.830673 1.806135-16.179494 1.806135l-0.014326 0c-21.348214 0-41.261753-9.573029-54.651714-26.25906-13.374612-16.671705-18.326391-38.526455-13.566994-59.965743 5.64865-25.473161 26.559912-46.384423 52.02591-52.039213 5.387707-1.181919 10.846022-1.797949 16.192797-1.797949 21.349237 0 41.263799 9.559727 54.652737 26.244734C580.025814 484.882386 584.97657 506.751463 580.218196 528.188704z" p-id="20183"></path></svg>